<svg xmlns="http://www.w3.org/2000/svg" xmlns:xlink="http://www.w3.org/1999/xlink" width="35.392" height="35.39" viewBox="0 0 35.392 35.39">
  <defs>
    <linearGradient id="linear-gradient" x1="0.084" y1="1" x2="0.923" y2="0.147" gradientUnits="objectBoundingBox">
      <stop offset="0" stop-color="#e3c1c1"/>
      <stop offset="1" stop-color="#6667ab"/>
    </linearGradient>
  </defs>
  <path id="Path_110" data-name="Path 110" d="M35.4,7.337a7.588,7.588,0,0,1-1.651,3.414c-.244.284-.483.566-.748.821Q22.915,21.56,12.816,31.535a1.943,1.943,0,0,1-.735.451Q6.929,33.657,1.766,35.3a1.225,1.225,0,0,1-1.738-.85,1.843,1.843,0,0,1,.079-.859c.984-3.318,2-6.623,2.963-9.945a3.93,3.93,0,0,1,1.047-1.753Q13.4,12.638,22.65,3.353C24.184,1.807,25.744.424,27.992,0h1.391c.025.142.046.05.073.054a7.5,7.5,0,0,1,4.9,3.4A5.986,5.986,0,0,1,35.4,6.038v1.3Z" transform="translate(-0.009)" fill="url(#linear-gradient)"/>
</svg>
