<?xml version="1.0" encoding="UTF-8"?>
<!DOCTYPE svg PUBLIC "-//W3C//DTD SVG 1.1//EN" "http://www.w3.org/Graphics/SVG/1.1/DTD/svg11.dtd">
<!-- Creator: CorelDRAW 2019 (64-Bit) -->
<svg xmlns="http://www.w3.org/2000/svg" xml:space="preserve" width="210mm" height="297mm" version="1.1" style="shape-rendering:geometricPrecision; text-rendering:geometricPrecision; image-rendering:optimizeQuality; fill-rule:evenodd; clip-rule:evenodd"
viewBox="0 0 210 297"
 xmlns:xlink="http://www.w3.org/1999/xlink">
 <defs>
  <style type="text/css">
   <![CDATA[
    .str0 {stroke:#C5C5C5;stroke-width:0.0762;stroke-miterlimit:22.9256}
    .fil0 {fill:#C5C5C5}
   ]]>
  </style>
 </defs>
 <g id="Layer_x0020_1">
  <metadata id="CorelCorpID_0Corel-Layer"/>
  <g id="_2688479684400">
   <path class="fil0 str0" d="M44.8949 158.2763c0.9808,-0.519 1.5909,-0.7715 2.8222,-1.0583 0.1935,0.8305 0.3288,1.0419 0.3528,2.1167 5.957,-0.8751 3.0602,-0.0655 5.9972,0l0.4063 -2.105c1.1778,0.2751 1.7879,0.5276 2.7687,1.0466 -0.3045,1.3071 -0.5821,0.9865 -0.7055,2.4695 1.6381,0.4374 2.7978,2.1483 3.5277,3.5277 1.5799,-0.368 1.133,-0.7014 2.4695,-1.0583 0.2868,1.2313 0.5393,1.8414 1.0583,2.8222 -0.7011,0.3364 -1.2614,0.5063 -2.1167,0.7056l0 5.6444c0.8295,0.398 1.2873,0.3076 2.1167,0.7056 -0.519,0.9808 -0.7715,1.5909 -1.0583,2.8222 -1.3365,-0.3569 -0.8896,-0.6903 -2.4695,-1.0583 -0.3184,1.1926 -2.3351,3.2093 -3.5277,3.5277 0.1234,1.483 0.401,1.1624 0.7055,2.4695 -0.9554,0.5055 -1.5081,0.949 -2.8222,1.0583l-0.4063 -2.1049c-5.4482,0.4155 -0.3115,0.4569 -5.9437,-0.0118 -0.024,1.0748 -0.1593,1.2862 -0.3528,2.1167 -1.2313,-0.2868 -1.8414,-0.5393 -2.8222,-1.0583 0.2513,-1.0788 0.5489,-1.3559 1.0583,-2.1167 -1.7161,-0.908 -2.9725,-2.1644 -3.8805,-3.8805 -0.914,0.244 -1.2782,0.6146 -2.1167,1.0583 -0.5437,-1.0276 -1.0233,-1.6016 -1.0583,-3.175 1.0747,-0.0239 1.2861,-0.1593 2.1166,-0.3528 -0.7102,-1.4802 -0.3505,-4.1398 0,-5.6444 -0.8305,-0.1935 -1.0419,-0.3289 -2.1166,-0.3528 0.035,-1.5734 0.5146,-2.1474 1.0583,-3.175 0.7608,0.5094 1.0379,0.807 2.1167,1.0583 1.0691,-2.0204 2.0591,-2.6608 3.8805,-3.8805l-1.0583 -2.1167zm-1.4111 -0.3528c0.2551,1.0949 0.4505,1.0218 0.7055,2.1167l-2.5427 2.7507c-0.8407,-0.1725 -1.2049,-0.5431 -2.0434,-0.9868 -1.001,1.4949 -1.9245,2.9824 -2.1166,5.2917l2.1049 0.4062 0.0117 4.1799c-0.8305,0.1935 -1.0419,0.3288 -2.1166,0.3527 0.2238,2.6894 1.2974,3.2897 1.7638,5.2917 1.0788,-0.2513 1.356,-0.5489 2.1167,-1.0583l2.9052 2.7392c-0.338,1.1779 -0.5334,1.1048 -0.7885,2.1997 3.1218,2.0904 3.1746,1.2701 4.9389,2.1166 0.1935,-0.8305 0.3288,-1.0419 0.3527,-2.1166l4.5862 0 0.4062 2.1049c0.7968,-0.3963 1.5812,-0.4245 2.6297,-0.8329 0.9243,-0.3599 1.8349,-0.8627 2.6085,-1.272 -0.5094,-0.7608 -0.807,-1.0379 -1.0583,-2.1167 0.6806,-1.0165 0.4648,-0.4995 1.2448,-1.2246 0.6044,-0.5619 0.8157,-0.987 1.2246,-1.5976 1.5799,0.368 1.1329,0.7014 2.4695,1.0583 0.4675,-1.7511 1.7079,-2.7792 1.7638,-5.2917l-2.1049 -0.4062 -0.0117 -4.1799 2.1049 -0.4062c-0.0468,-2.5734 -1.2722,-3.1783 -1.7521,-5.2382 -1.0788,0.2513 -1.356,0.5489 -2.1167,1.0583l-2.9052 -2.7392c0.338,-1.1779 0.5334,-1.1048 0.7885,-2.1997 -1.2588,-0.8429 -2.8852,-1.7181 -4.9389,-1.7638 -0.1992,0.8552 -0.3691,1.4155 -0.7055,2.1166 -0.9467,-0.5318 -1.2141,-0.3528 -2.8222,-0.3528 -1.3488,0 -0.1284,-0.1082 -1.0584,0.3528 -0.3337,-0.6954 -0.5097,-1.6288 -0.7055,-2.4694 -1.7828,0.8554 -1.4573,0.2744 -4.9389,2.1166z"/>
   <path class="fil0" d="M44.1893 169.5652c0,-1.8855 0.6477,-3.2879 1.6576,-4.3397 2.5671,-2.6737 3.0807,-2.3631 6.4563,-2.3631 1.386,0 3.3997,1.3889 4.1032,2.2469 3.9398,4.805 -0.0416,11.5114 -5.1615,11.5114 -3.7124,0 -7.0556,-3.2337 -7.0556,-7.0555zm-1.0583 0c0,6.9312 8.4096,10.5853 13.3354,5.927 5.3215,-5.0325 1.5748,-13.6881 -4.516,-13.6881 -5.3141,0 -8.8194,2.8568 -8.8194,7.7611z"/>
   <path class="fil0" d="M51.2449 171.3291c-3.8108,0 -0.8766,-6.7542 1.7639,-1.7639 -0.4036,0.7627 -0.6147,1.7639 -1.7639,1.7639zm-2.8222 -2.4695c0,5.4985 5.5306,3.8327 5.5069,0.7018 -0.0288,-3.8098 -5.5069,-3.3876 -5.5069,-0.7018z"/>
  </g>
 </g>
</svg>
