<svg xmlns="http://www.w3.org/2000/svg" xmlns:xlink="http://www.w3.org/1999/xlink" width="40.797" height="35.233" viewBox="0 0 40.797 35.233">
  <defs>
    <linearGradient id="linear-gradient" x1="0.097" y1="0.683" x2="1" y2="0.5" gradientUnits="objectBoundingBox">
      <stop offset="0" stop-color="#e3c1c1"/>
      <stop offset="1" stop-color="#6667ab"/>
    </linearGradient>
  </defs>
  <g id="Group_30" data-name="Group 30" transform="translate(0.004 0.002)">
    <g id="Group_29" data-name="Group 29" transform="translate(-0.004 -0.002)">
      <path id="Path_83" data-name="Path 83" d="M40.207,14.407,25.372.5a1.855,1.855,0,0,0-3.123,1.352v5.9C8.1,10.794,1.624,18.258.007,33.176a1.855,1.855,0,0,0,3.43,1.163c3.39-5.588,10.942-9.614,18.813-10.167v5.5a1.855,1.855,0,0,0,3.123,1.354L40.207,17.115a1.857,1.857,0,0,0,0-2.708Z" transform="translate(0.004 0.002)" fill-rule="evenodd" fill="url(#linear-gradient)"/>
    </g>
  </g>
</svg>
