<svg xmlns="http://www.w3.org/2000/svg" width="41" height="39" viewBox="0 0 41 39">
  <g id="Polygon_1" data-name="Polygon 1" fill="#e3c1c1">
    <path d="M 32.47856903076172 38.04863739013672 L 20.74118041992188 31.58547973632812 L 20.5 31.45268058776855 L 20.25881958007812 31.58547973632812 L 8.521438598632812 38.04863739013672 L 11.04018020629883 24.88644981384277 L 11.09191036224365 24.61610984802246 L 10.89116954803467 24.42781066894531 L 1.118149638175964 15.26002788543701 L 14.41236972808838 13.58856010437012 L 14.68550968170166 13.55422019958496 L 14.8025598526001 13.30504989624023 L 20.5 1.176015496253967 L 26.19743919372559 13.30504989624023 L 26.31448936462402 13.55422019958496 L 26.5876293182373 13.58856010437012 L 39.88185119628906 15.26001834869385 L 30.10882949829102 24.42781066894531 L 29.90809059143066 24.61610984802246 L 29.95981979370117 24.88644981384277 L 32.47856903076172 38.04863739013672 Z" stroke="none"/>
    <path d="M 20.5 2.352039337158203 L 15.02103042602539 14.0159797668457 L 2.236320495605469 15.62337684631348 L 11.63472938537598 24.43976020812988 L 9.212564468383789 37.09728240966797 L 20.5 30.88188934326172 L 31.78744506835938 37.09728240966797 L 29.36526870727539 24.43976020812988 L 38.76367950439453 15.62337684631348 L 25.97896957397461 14.0159797668457 L 20.5 2.352039337158203 M 20.5 0 L 26.64999961853027 13.09247016906738 L 41 14.89666938781738 L 30.45090866088867 24.7924690246582 L 33.16970062255859 39 L 20.5 32.02346801757812 L 7.830310821533203 39 L 10.5490894317627 24.7924690246582 L 0 14.89666938781738 L 14.35000038146973 13.09247016906738 L 20.5 0 Z" stroke="none" fill="#707070"/>
  </g>
</svg>
